<!-- Generated by IcoMoon.io -->
<svg version="1.1" xmlns="http://www.w3.org/2000/svg" width="640" height="640" viewBox="0 0 640 640">
<title></title>
<g id="icomoon-ignore">
</g>
<path fill="#000" d="M400.16 278.336l-80.16 73.664-80.192-73.664c-6.336-6.272-16.576-6.272-22.976 0-6.304 6.272-6.304 16.48 0 22.72l91.648 89.824c6.368 6.272 16.64 6.272 22.944 0l91.648-89.824c6.368-6.24 6.336-16.448 0-22.72-6.304-6.272-16.544-6.272-22.912 0zM320 12.8c-169.664 0-307.2 137.536-307.2 307.2 0 169.696 137.536 307.2 307.2 307.2s307.2-137.504 307.2-307.2c0-169.664-137.536-307.2-307.2-307.2zM320 587.328c-147.68 0-267.328-119.68-267.328-267.328s119.648-267.328 267.328-267.328c147.616 0 267.328 119.68 267.328 267.328s-119.712 267.328-267.328 267.328z"></path>
</svg>
